# xmcd
#
# Track frame offsets: 
#        150
#        18270
#        37733
#        59473
#        83364
#        103687
#        125577
#        152757
#        170367
#        198724
#        264130
#        281919
#        301800
#
# Disc length: 4415 seconds
#
# Revision: 0
# Processed by: cddbd v1.5.2PL0 Copyright (c) Steve Scherf et al.
# Submitted via: ExactAudioCopyFreeDBPlugin 1.0
#
DISCID=a1113d0d
DTITLE=Rory Gallagher - Photofinisher
DYEAR=1990
DGENRE=Blues
TTITLE0=Shin Kicker
TTITLE1=Brute Force and Ignorance
TTITLE2=Cruise On Out
TTITLE3=Cloak and Dagger
TTITLE4=Overnight Bag
TTITLE5=Shadow Play
TTITLE6=Mississippi Sheiks
TTITLE7=Last Of The Independents
TTITLE8=Fuel To The Fire
TTITLE9=Jack Bruce Jam
TTITLE10=Like You Anymore
TTITLE11=Hands Off
TTITLE12=Hellcat
EXTD=
EXTT0=
EXTT1=
EXTT2=
EXTT3=
EXTT4=
EXTT5=
EXTT6=
EXTT7=
EXTT8=
EXTT9=
EXTT10=
EXTT11=
EXTT12=
PLAYORDER=
